# xmcd CD database file
#
# Track frame offsets:
#	180
#	13689
#	23143
#	36802
#	46319
#	62147
#	77277
#	96265
#	112454
#	123259
#	136840
#	153592
#	167848
#	203470
#
# Disc length: 2793 seconds
#
# Revision: 0
# Processed by: cddbd v1.5.2PL0 Copyright (c) Steve Scherf et al.
# Submitted via: CDex 1.51
#
DISCID=b20ae70e
DTITLE=Stonehenge - Stonehenge
DYEAR=1995
DGENRE=Blues
TTITLE0=Mir geht's gut
TTITLE1=Martha
TTITLE2=Kuchen mit Speck
TTITLE3=Chilli Convex
TTITLE4=Ich steig' aus
TTITLE5=Cooler Luxus
TTITLE6=Wie letzte Nacht
TTITLE7=Backwahn
TTITLE8=Rost und Löcher
TTITLE9=Keiner will dich kennen
TTITLE10=Der Psychopath
TTITLE11=How up
TTITLE12=Du hast es geschafft
TTITLE13=Tequila
EXTD=YEAR: 1995
EXTT0=
EXTT1=
EXTT2=
EXTT3=
EXTT4=
EXTT5=
EXTT6=
EXTT7=
EXTT8=
EXTT9=
EXTT10=
EXTT11=
EXTT12=
EXTT13=
PLAYORDER=
